# xmcd
#
# Track frame offsets:
#	150
#	34268
#	53015
#	75425
#	125656
#
# Disc length: 2016 seconds
#
# Revision: 2
# Processed by: cddbd v1.5PL3 Copyright (c) Steve Scherf et al.
# Submitted via: audiograbber 1.83.01
#
DISCID=3707de05
DTITLE=Los Lonely Boys - Heaven Live!
DYEAR=2003
DGENRE=Rock and Roll
TTITLE0=Señorita
TTITLE1=Real Emotions
TTITLE2=Velvet Sky
TTITLE3=Onda
TTITLE4=Heaven
EXTD=http://www.loslonelyboys.org/
EXTT0=
EXTT1=
EXTT2=
EXTT3=
EXTT4=
PLAYORDER=
